<?xml version="1.0" encoding="UTF-8" standalone="no"?><!DOCTYPE svg PUBLIC "-//W3C//DTD SVG 1.1//EN" "http://www.w3.org/Graphics/SVG/1.1/DTD/svg11.dtd"><svg width="100%" height="100%" viewBox="0 0 1021 1000" version="1.1" xmlns="http://www.w3.org/2000/svg" xmlns:xlink="http://www.w3.org/1999/xlink" xml:space="preserve" xmlns:serif="http://www.serif.com/" style="fill-rule:evenodd;clip-rule:evenodd;stroke-linejoin:round;stroke-miterlimit:2;"><path d="M435,432.917c-23.75,-0 -42.5,20.833 -42.5,46.25c0,25.416 19.167,46.25 42.5,46.25c23.75,-0 42.5,-20.834 42.5,-46.25c0.417,-25.417 -18.75,-46.25 -42.5,-46.25Zm152.083,-0c-23.75,-0 -42.5,20.833 -42.5,46.25c0,25.416 19.167,46.25 42.5,46.25c23.75,-0 42.5,-20.834 42.5,-46.25c0,-25.417 -18.75,-46.25 -42.5,-46.25Z" style="fill:#fff;fill-rule:nonzero;"/><path d="M839.96,3.571l-664.816,0c-56.062,0 -101.707,45.644 -101.707,102.203l0,670.769c0,56.559 45.645,102.203 101.707,102.203l562.613,0l-26.295,-91.784l63.505,59.04l60.032,55.566l106.668,94.265l-0,-890.059c-0,-56.559 -45.644,-102.203 -101.707,-102.203Zm-191.507,647.947c0,0 -17.86,-21.333 -32.744,-40.186c64.993,-18.357 89.799,-59.04 89.799,-59.04c-20.341,13.396 -39.69,22.822 -57.055,29.272c-24.806,10.419 -48.621,17.365 -71.939,21.334c-47.628,8.93 -91.288,6.449 -128.498,-0.497c-28.279,-5.457 -52.59,-13.395 -72.931,-21.333c-11.411,-4.465 -23.814,-9.923 -36.217,-16.869c-1.489,-0.992 -2.977,-1.488 -4.466,-2.48c-0.992,-0.496 -1.488,-0.993 -1.984,-1.489c-8.931,-4.961 -13.892,-8.434 -13.892,-8.434c0,0 23.814,39.691 86.823,58.544c-14.884,18.853 -33.241,41.178 -33.241,41.178c-109.645,-3.472 -151.32,-75.411 -151.32,-75.411c0,-159.755 71.443,-289.245 71.443,-289.245c71.443,-53.582 139.413,-52.094 139.413,-52.094l4.961,5.954c-89.303,25.799 -130.482,64.993 -130.482,64.993c-0,0 10.915,-5.953 29.272,-14.388c53.086,-23.318 95.257,-29.767 112.621,-31.256c2.977,-0.496 5.458,-0.992 8.435,-0.992c30.264,-3.969 64.497,-4.961 100.218,-0.992c47.132,5.457 97.738,19.349 149.335,47.628c0,0 -39.194,-37.21 -123.536,-63.008l6.946,-7.939c-0,0 67.97,-1.488 139.412,52.094c0,0 71.443,129.49 71.443,289.245c0,-0 -42.171,71.939 -151.816,75.411Z" style="fill:#fff;fill-rule:nonzero;"/></svg>